<svg xmlns="http://www.w3.org/2000/svg" width="250" height="180" viewBox="0 0 250 180"><rect width="100%" height="100%" fill="#DDDDDD"/><path fill="#999999" d="M59.85 98.13h6.12q.66 0 1.05.38.38.37.38.98v2.44H51.03v-1.35q0-.42.18-.87.17-.45.55-.82L59 91.63q.91-.92 1.63-1.76.72-.84 1.2-1.67.47-.82.73-1.67t.26-1.79q0-.86-.25-1.51t-.7-1.1q-.46-.45-1.09-.67-.64-.22-1.43-.22-.73 0-1.34.21-.62.2-1.1.57-.48.37-.81.87-.33.49-.49 1.09-.29.76-.73 1-.45.25-1.29.12l-2.14-.38q.24-1.72.95-3.01.71-1.3 1.78-2.16 1.06-.87 2.44-1.31 1.38-.43 2.96-.43 1.65 0 3.02.48 1.37.49 2.34 1.38.98.89 1.52 2.15.55 1.25.55 2.79 0 1.32-.39 2.44-.39 1.12-1.04 2.14-.65 1.03-1.53 1.98-.87.96-1.83 1.95l-5.38 5.49q.78-.23 1.55-.35.76-.13 1.46-.13Zm16.61-16.36-.84 4.96q.79-.16 1.52-.24.72-.07 1.4-.07 1.88 0 3.32.56 1.43.56 2.41 1.55.97.99 1.46 2.32.5 1.33.5 2.86 0 1.9-.67 3.47-.67 1.57-1.86 2.68-1.18 1.11-2.81 1.72-1.62.61-3.54.61-1.12 0-2.13-.23-1-.23-1.89-.62-.88-.38-1.63-.89-.75-.5-1.34-1.06l1.25-1.73q.4-.56 1.04-.56.41 0 .84.26t.98.58q.56.31 1.31.57.75.27 1.8.27 1.13 0 1.98-.36.86-.37 1.43-1.02t.86-1.55q.29-.9.29-1.96 0-1.94-1.13-3.04t-3.34-1.1q-1.7 0-3.49.63l-2.54-.73 1.98-11.58H85.4v1.73q0 .88-.54 1.42-.54.55-1.85.55h-6.55ZM106.38 90q0 3.12-.67 5.42t-1.85 3.8q-1.18 1.51-2.79 2.24-1.61.73-3.47.73-1.87 0-3.46-.73-1.59-.73-2.76-2.24-1.17-1.5-1.83-3.8-.66-2.3-.66-5.42 0-3.13.66-5.43.66-2.29 1.83-3.79t2.76-2.24q1.59-.73 3.46-.73 1.86 0 3.47.73 1.61.74 2.79 2.24 1.18 1.5 1.85 3.79.67 2.3.67 5.43Zm-4.21 0q0-2.59-.38-4.29-.38-1.7-1.02-2.71-.63-1-1.46-1.41-.82-.4-1.71-.4-.88 0-1.69.4-.82.41-1.45 1.41-.62 1.01-1 2.71-.37 1.7-.37 4.29t.37 4.29q.38 1.7 1 2.71.63 1 1.45 1.41.81.4 1.69.4.89 0 1.71-.4.83-.41 1.46-1.41.64-1.01 1.02-2.71t.38-4.29Zm30.41 6.47-2.16 2.13-5.6-5.6-5.64 5.63-2.16-2.13 5.64-5.66-5.38-5.38 2.15-2.14 5.38 5.38 5.34-5.35 2.18 2.15-5.36 5.36 5.61 5.61Zm22.59 2.41h4.29v3.05h-13.2v-3.05h4.83V84.97q0-.83.05-1.7l-3.43 2.87q-.3.23-.59.29-.29.06-.54.01-.26-.05-.46-.18-.19-.12-.29-.27l-1.29-1.76 7.28-6.19h3.35v20.84Zm15.92.13q1.01 0 1.76-.29.76-.29 1.28-.8t.79-1.22q.26-.71.26-1.54 0-1.96-1.09-2.97-1.09-1-3-1-1.92 0-3 1Q167 93.2 167 95.16q0 .83.26 1.54.26.71.78 1.22t1.28.8q.76.29 1.77.29Zm0-18.13q-.91 0-1.57.28t-1.1.75q-.43.47-.64 1.08-.21.61-.21 1.28 0 .71.18 1.38.17.67.58 1.19.42.52 1.09.83.68.32 1.67.32.99 0 1.67-.32.67-.31 1.08-.83.42-.52.59-1.19.17-.67.17-1.38 0-.67-.21-1.28-.22-.61-.64-1.08-.43-.47-1.09-.75-.66-.28-1.57-.28Zm4.02 8.61q2.18.71 3.22 2.17t1.04 3.57q0 1.58-.6 2.87t-1.69 2.2q-1.09.9-2.62 1.4-1.52.49-3.37.49t-3.38-.49q-1.52-.5-2.61-1.4-1.09-.91-1.69-2.2-.6-1.29-.6-2.87 0-2.11 1.04-3.57 1.03-1.46 3.21-2.17-1.73-.73-2.6-2.06-.86-1.34-.86-3.22 0-1.35.55-2.53.55-1.17 1.54-2.03.99-.87 2.37-1.36 1.38-.48 3.03-.48t3.03.48q1.37.49 2.36 1.36.99.86 1.55 2.03.55 1.18.55 2.53 0 1.88-.87 3.22-.86 1.33-2.6 2.06Zm23.86.51q0 3.12-.66 5.42-.67 2.3-1.85 3.8-1.18 1.51-2.79 2.24-1.61.73-3.47.73-1.87 0-3.46-.73-1.59-.73-2.76-2.24-1.18-1.5-1.84-3.8-.66-2.3-.66-5.42 0-3.13.66-5.43.66-2.29 1.84-3.79 1.17-1.5 2.76-2.24 1.59-.73 3.46-.73 1.86 0 3.47.73 1.61.74 2.79 2.24 1.18 1.5 1.85 3.79.66 2.3.66 5.43Zm-4.2 0q0-2.59-.38-4.29-.38-1.7-1.02-2.71-.63-1-1.46-1.41-.82-.4-1.71-.4-.88 0-1.7.4-.81.41-1.44 1.41-.63 1.01-1 2.71t-.37 4.29q0 2.59.37 4.29.37 1.7 1 2.71.63 1 1.44 1.41.82.4 1.7.4.89 0 1.71-.4.83-.41 1.46-1.41.64-1.01 1.02-2.71t.38-4.29Z"/></svg>