<svg xmlns="http://www.w3.org/2000/svg" width="250" height="180" viewBox="0 0 250 180"><rect width="100%" height="100%" fill="#DDDDDD"/><path fill="#999999" d="m69.92 82.185-1.37 2.18q-.24.39-.51.55-.27.16-.69.16-.44 0-.94-.24-.51-.25-1.17-.55-.66-.31-1.5-.55-.85-.25-2-.25-1.79 0-2.81.76-1.01.76-1.01 1.98 0 .81.52 1.36.53.56 1.4.97.87.42 1.97.75 1.11.33 2.25.72 1.13.39 2.24.9 1.1.5 1.97 1.27.87.77 1.4 1.85.52 1.08.52 2.6 0 1.81-.65 3.34-.65 1.53-1.92 2.65-1.27 1.11-3.15 1.74-1.87.62-4.32.62-1.3 0-2.54-.23t-2.37-.65q-1.14-.42-2.11-.98t-1.7-1.23l1.39-2.3q.27-.41.64-.63.37-.23.93-.23t1.07.32q.5.32 1.16.69.66.37 1.56.68.89.32 2.26.32 1.08 0 1.85-.25.77-.26 1.28-.68.5-.41.73-.97.23-.55.23-1.13 0-.89-.52-1.45-.53-.56-1.4-.98-.87-.42-1.98-.75-1.12-.33-2.28-.72-1.17-.39-2.28-.92-1.12-.53-1.99-1.33-.87-.81-1.39-1.99-.53-1.17-.53-2.84 0-1.54.61-2.94.62-1.4 1.8-2.44 1.19-1.04 2.97-1.66 1.77-.63 4.1-.63 2.6 0 4.73.86 2.13.86 3.55 2.25Zm4.9-13.99h6.05v36.41h-6.05v-36.41Zm12.3 11.27h6.08v25.14h-6.08v-25.14Zm6.91-7.32q0 .78-.32 1.47-.32.68-.84 1.2-.53.51-1.24.82-.71.3-1.52.3-.78 0-1.48-.3-.7-.31-1.21-.82-.52-.52-.82-1.2-.31-.69-.31-1.47 0-.81.31-1.52.3-.71.82-1.23.51-.51 1.21-.82.7-.3 1.48-.3.81 0 1.52.3.71.31 1.24.82.52.52.84 1.23.32.71.32 1.52Zm21.12 25.01v-11.27q-1.03-1.25-2.24-1.76-1.21-.52-2.61-.52-1.37 0-2.48.52-1.1.51-1.88 1.55-.79 1.04-1.2 2.65-.42 1.6-.42 3.78 0 2.21.36 3.74.35 1.53 1.01 2.5t1.62 1.4q.96.43 2.13.43 1.89 0 3.21-.79 1.32-.78 2.5-2.23Zm0-28.96h6.05v36.41h-3.7q-1.2 0-1.52-1.1l-.51-2.43q-1.52 1.74-3.49 2.82-1.98 1.08-4.6 1.08-2.05 0-3.77-.86-1.71-.86-2.95-2.49-1.24-1.63-1.91-4.03-.68-2.4-.68-5.49 0-2.79.76-5.19.76-2.4 2.18-4.16 1.42-1.77 3.41-2.76 1.98-.99 4.46-.99 2.1 0 3.6.66 1.49.66 2.67 1.79v-13.26Zm16.81 20.95h11.41q0-1.18-.33-2.22-.33-1.04-.99-1.82-.66-.79-1.68-1.24-1.01-.45-2.36-.45-2.62 0-4.13 1.49-1.51 1.5-1.92 4.24Zm15.43 3.65h-15.56q.15 1.94.69 3.35.54 1.4 1.42 2.32.88.92 2.1 1.37 1.21.46 2.68.46 1.47 0 2.53-.35 1.07-.34 1.87-.75.79-.42 1.39-.76.6-.35 1.17-.35.76 0 1.12.57l1.74 2.2q-1 1.18-2.25 1.97-1.25.8-2.61 1.28-1.36.48-2.77.67-1.41.2-2.73.2-2.62 0-4.88-.87-2.25-.87-3.92-2.57-1.66-1.71-2.62-4.22-.95-2.51-.95-5.82 0-2.57.83-4.84.83-2.26 2.39-3.94 1.55-1.68 3.8-2.66 2.24-.98 5.06-.98 2.37 0 4.38.76t3.46 2.22q1.44 1.46 2.26 3.57.82 2.12.82 4.84 0 1.38-.29 1.85-.3.48-1.13.48Zm4.73 15.09h19.31v3.92h-19.31v-3.92Zm40.08-7.81h6.37v4.53h-19.6v-4.53h7.18v-20.66q0-1.22.07-2.52l-5.09 4.26q-.44.35-.87.43-.43.09-.81.01-.38-.07-.67-.25-.3-.19-.44-.41l-1.92-2.62 10.81-9.19h4.97v30.95Z"/></svg>